<mxfile host="app.diagrams.net" agent="Mozilla/5.0 (Windows NT 10.0; Win64; x64) AppleWebKit/537.36 (KHTML, like Gecko) Chrome/130.0.0.0 Safari/537.36" version="24.8.3">
  <diagram id="R2lEEEUBdFMjLlhIrx00" name="Page-1">
    <mxGraphModel dx="387" dy="207" grid="1" gridSize="10" guides="1" tooltips="1" connect="1" arrows="1" fold="1" page="1" pageScale="1" pageWidth="850" pageHeight="1100" math="0" shadow="0" extFonts="Permanent Marker^https://fonts.googleapis.com/css?family=Permanent+Marker">
      <root>
        <mxCell id="0" />
        <mxCell id="1" parent="0" />
        <mxCell id="Oi1S64GzBulodLDOKAPP-1" value="Branch" style="html=1;dashed=0;whiteSpace=wrap;" vertex="1" parent="1">
          <mxGeometry x="270" y="100" width="100" height="50" as="geometry" />
        </mxCell>
        <mxCell id="Oi1S64GzBulodLDOKAPP-12" style="rounded=0;orthogonalLoop=1;jettySize=auto;html=1;exitX=1;exitY=1;exitDx=0;exitDy=0;entryX=0.25;entryY=0;entryDx=0;entryDy=0;endArrow=none;endFill=0;" edge="1" parent="1" source="Oi1S64GzBulodLDOKAPP-2" target="Oi1S64GzBulodLDOKAPP-1">
          <mxGeometry relative="1" as="geometry" />
        </mxCell>
        <mxCell id="Oi1S64GzBulodLDOKAPP-2" value="&lt;u&gt;bNum&lt;/u&gt;" style="ellipse;whiteSpace=wrap;html=1;align=center;" vertex="1" parent="1">
          <mxGeometry x="180" y="50" width="100" height="40" as="geometry" />
        </mxCell>
        <mxCell id="Oi1S64GzBulodLDOKAPP-14" style="rounded=0;orthogonalLoop=1;jettySize=auto;html=1;entryX=0.5;entryY=0;entryDx=0;entryDy=0;endArrow=none;endFill=0;" edge="1" parent="1" source="Oi1S64GzBulodLDOKAPP-3" target="Oi1S64GzBulodLDOKAPP-1">
          <mxGeometry relative="1" as="geometry" />
        </mxCell>
        <mxCell id="Oi1S64GzBulodLDOKAPP-3" value="bName" style="ellipse;whiteSpace=wrap;html=1;align=center;" vertex="1" parent="1">
          <mxGeometry x="290" y="40" width="100" height="40" as="geometry" />
        </mxCell>
        <mxCell id="Oi1S64GzBulodLDOKAPP-11" style="rounded=0;orthogonalLoop=1;jettySize=auto;html=1;entryX=0;entryY=0.25;entryDx=0;entryDy=0;endArrow=none;endFill=0;" edge="1" parent="1" source="Oi1S64GzBulodLDOKAPP-4" target="Oi1S64GzBulodLDOKAPP-1">
          <mxGeometry relative="1" as="geometry" />
        </mxCell>
        <mxCell id="Oi1S64GzBulodLDOKAPP-4" value="bEmployee" style="ellipse;whiteSpace=wrap;html=1;align=center;" vertex="1" parent="1">
          <mxGeometry x="131" y="100" width="100" height="40" as="geometry" />
        </mxCell>
        <mxCell id="Oi1S64GzBulodLDOKAPP-5" value="Client" style="html=1;dashed=0;whiteSpace=wrap;" vertex="1" parent="1">
          <mxGeometry x="425" y="90" width="100" height="50" as="geometry" />
        </mxCell>
        <mxCell id="Oi1S64GzBulodLDOKAPP-7" value="cName" style="ellipse;whiteSpace=wrap;html=1;align=center;" vertex="1" parent="1">
          <mxGeometry x="440" y="30" width="100" height="40" as="geometry" />
        </mxCell>
        <mxCell id="Oi1S64GzBulodLDOKAPP-8" value="cNum" style="ellipse;whiteSpace=wrap;html=1;align=center;" vertex="1" parent="1">
          <mxGeometry x="550" y="60" width="100" height="40" as="geometry" />
        </mxCell>
        <mxCell id="Oi1S64GzBulodLDOKAPP-9" value="Employee" style="html=1;dashed=0;whiteSpace=wrap;" vertex="1" parent="1">
          <mxGeometry x="220" y="190" width="100" height="50" as="geometry" />
        </mxCell>
        <mxCell id="Oi1S64GzBulodLDOKAPP-10" value="eName" style="ellipse;whiteSpace=wrap;html=1;align=center;" vertex="1" parent="1">
          <mxGeometry x="100" y="170" width="100" height="40" as="geometry" />
        </mxCell>
        <mxCell id="Oi1S64GzBulodLDOKAPP-15" value="eDOB" style="ellipse;whiteSpace=wrap;html=1;align=center;" vertex="1" parent="1">
          <mxGeometry x="110" y="220" width="100" height="40" as="geometry" />
        </mxCell>
        <mxCell id="Oi1S64GzBulodLDOKAPP-16" value="eSex" style="ellipse;whiteSpace=wrap;html=1;align=center;" vertex="1" parent="1">
          <mxGeometry x="210" y="250" width="100" height="40" as="geometry" />
        </mxCell>
        <mxCell id="Oi1S64GzBulodLDOKAPP-17" value="eSalary" style="ellipse;whiteSpace=wrap;html=1;align=center;" vertex="1" parent="1">
          <mxGeometry x="330" y="250" width="100" height="40" as="geometry" />
        </mxCell>
        <mxCell id="Oi1S64GzBulodLDOKAPP-18" value="eNum" style="ellipse;whiteSpace=wrap;html=1;align=center;" vertex="1" parent="1">
          <mxGeometry x="340" y="195" width="100" height="40" as="geometry" />
        </mxCell>
      </root>
    </mxGraphModel>
  </diagram>
</mxfile>
